<svg xmlns="http://www.w3.org/2000/svg" viewBox="0 0 1000 380" fill="none" role="img" aria-label="OWS">
  <defs>
    <clipPath id="owsBadgeClip">
      <path d="M14,190 Q14,170 30,160 L128,56 Q145,40 168,40 L832,40 Q855,40 872,56 L970,160 Q986,170 986,190 Q986,210 970,220 L872,324 Q855,340 832,340 L168,340 Q145,340 128,324 L30,220 Q14,210 14,190 Z"/>
    </clipPath>
  </defs>

  <g clip-path="url(#owsBadgeClip)">
    <rect x="0" y="0" width="1000" height="380" fill="#6b2d7a"/>
    <g fill="#ffffff">
      <rect x="0" y="18" width="1000" height="13"/>
      <rect x="0" y="54" width="1000" height="13"/>
      <rect x="0" y="90" width="1000" height="13"/>
      <rect x="0" y="126" width="1000" height="13"/>
      <rect x="0" y="162" width="1000" height="13"/>
      <rect x="0" y="198" width="1000" height="13"/>
      <rect x="0" y="234" width="1000" height="13"/>
      <rect x="0" y="270" width="1000" height="13"/>
      <rect x="0" y="306" width="1000" height="13"/>
      <rect x="0" y="342" width="1000" height="13"/>
    </g>
  </g>

  <path d="M14,190 Q14,170 30,160 L128,56 Q145,40 168,40 L832,40 Q855,40 872,56 L970,160 Q986,170 986,190 Q986,210 970,220 L872,324 Q855,340 832,340 L168,340 Q145,340 128,324 L30,220 Q14,210 14,190 Z"
        fill="none" stroke="#6b2d7a" stroke-width="6"/>

  <!-- O -->
  <path fill-rule="evenodd" fill="#ffffff"
        d="M176,92 L304,92 L330,118 L330,262 L304,288 L176,288 L150,262 L150,118 Z
           M196,132 L284,132 L290,138 L290,242 L284,248 L196,248 L190,242 L190,138 Z"/>

  <!-- W -->
  <path fill="none" stroke="#ffffff" stroke-width="34" stroke-linejoin="bevel" stroke-linecap="square"
        d="M388,95 L440,285 L500,145 L560,285 L612,95"/>

  <!-- S -->
  <path fill="none" stroke="#ffffff" stroke-width="34" stroke-linejoin="bevel" stroke-linecap="square"
        d="M848,100 L702,100 L702,188 L848,188 L848,280 L702,280"/>

  <!-- circuit trace + via near the S -->
  <path d="M818,116 L888,84" fill="none" stroke="#ffffff" stroke-width="8" stroke-linecap="round"/>
  <circle cx="900" cy="79" r="13" fill="none" stroke="#ffffff" stroke-width="7"/>
</svg>
